<svg xmlns="http://www.w3.org/2000/svg" xmlns:xlink="http://www.w3.org/1999/xlink" version="1.1" x="0px" y="0px" viewBox="0 0 100 125" enable-background="new 0 0 100 100" xml:space="preserve"><g><path d="M66.357,68.532c0.026,3.364-0.455,6.658-1.386,9.797l17.948-9.423L66.357,68.532z"/><path d="M68.213,48.325l20.366-21.621L62.3,38.757L76.221,5.031L53.398,26.493l-2.949-10.641l-9.835,20.089   c11.477,2.828,21.127,11.61,24.501,23.81c0.161,0.561,0.297,1.122,0.415,1.695l28.456-15.242L68.213,48.325z"/><path d="M29.615,13.998l-8.449,22.956c0.761-0.279,1.549-0.531,2.336-0.746c4.004-1.122,8.047-1.453,11.972-1.109L29.615,13.998z"/><g><path d="M25.208,43.552c13.936-3.864,28.359,4.301,32.224,18.236c3.859,13.936-4.304,28.361-18.239,32.224    c-13.938,3.862-28.359-4.301-32.221-18.236C3.108,61.84,11.271,47.414,25.208,43.552z M53.589,61.73l-3.799-8.226l-6.196-5.354    l-4.226-1.795l1.415,3.181l-2.614,0.727l-0.645,2.611l1.715,3.175l4.888,3.359l1.173-3.445l-5.165-3.812l0.389-0.941l7.46,4.013    l-1.599,3.561l1.175,2.867l-1.184,2.987l3.634,1.73l-0.675,3.608l4.017,1.322L53.589,61.73z M48.728,81.78l3.51-4.623    l-3.411,1.403L48.728,81.78z M34.407,70.519l-5.801-6.302l-1.741,4.335l0.765,3.134l-3.08,0.956l-0.87-1.498l-3.433-2.685    l-1.618-4.012l2.024-1.475l0.754-2.035l-1.977-5.126l-3.269,0.095l-0.898-1.78l0.327-2.117l-1.017-0.732l-3.798,5.311l3.71,6.071    l-2.304,6.312l1.823,6.592l2.745,1.471l0.916,4.41l2.553,1.523l-0.419-3.331l4.29,0.838l0.576,2.072l2.656,1.188l-0.859-3.105    L26.146,79.5l3.654-5.475L34.407,70.519z M36.486,89.734l-1.791-1.251l-0.471-1.695l-7.103,0.979l-0.196,2.033l5.272,1.732    L36.486,89.734z M25.632,59.896l-1.35-4.872l-2.824,0.784l1.35,4.868L25.632,59.896z"/></g></g></svg>